<svg xmlns="http://www.w3.org/2000/svg" width="800" height="480" viewBox="0 0 800 480">
  <rect width="800" height="480" fill="#1a1a1a"/>

  <!-- Toolbar -->
  <rect width="800" height="52" fill="#2c6fad"/>
  <text x="20" y="33" fill="white" font-family="Segoe UI,Arial,sans-serif" font-size="16" font-weight="600">Fornecedores</text>
  <rect x="696" y="13" width="88" height="28" rx="4" fill="white" fill-opacity="0.15" stroke="white" stroke-opacity="0.35" stroke-width="1"/>
  <text x="740" y="32" fill="white" font-family="Segoe UI,Arial,sans-serif" font-size="13" text-anchor="middle">+ Novo</text>

  <!-- Page body -->
  <rect x="0" y="52" width="800" height="428" fill="#1e1e1e"/>

  <!-- Search bar row -->
  <rect x="16" y="70" width="560" height="36" rx="4" fill="#252525" stroke="#353535" stroke-width="1"/>
  <text x="32" y="93" fill="#555" font-family="Segoe UI,Arial,sans-serif" font-size="13">Pesquisa rápida...</text>
  <circle cx="556" cy="88" r="6" fill="none" stroke="#555" stroke-width="1.5"/>
  <line x1="560" y1="93" x2="565" y2="98" stroke="#555" stroke-width="1.5" stroke-linecap="round"/>

  <!-- Advanced search button -->
  <rect x="584" y="70" width="150" height="36" rx="4" fill="#252525" stroke="#353535" stroke-width="1"/>
  <text x="659" y="93" fill="#7ab3d4" font-family="Segoe UI,Arial,sans-serif" font-size="13" text-anchor="middle">Busca Avançada ▾</text>

  <!-- Disclaimer tags (active filters) -->
  <rect x="16" y="116" width="110" height="26" rx="13" fill="#1b2d3f" stroke="#2c6fad" stroke-width="1"/>
  <text x="26" y="134" fill="#7ab3d4" font-family="Segoe UI,Arial,sans-serif" font-size="12">Estado: SP  ✕</text>

  <rect x="134" y="116" width="138" height="26" rx="13" fill="#1b2d3f" stroke="#2c6fad" stroke-width="1"/>
  <text x="144" y="134" fill="#7ab3d4" font-family="Segoe UI,Arial,sans-serif" font-size="12">Tipo: Jurídica  ✕</text>

  <text x="282" y="134" fill="#555" font-family="Segoe UI,Arial,sans-serif" font-size="12">Limpar filtros</text>

  <!-- Table header -->
  <rect x="16" y="152" width="768" height="36" rx="3" fill="#252525"/>
  <text x="30"  y="175" fill="#999" font-family="Segoe UI,Arial,sans-serif" font-size="12" font-weight="600">Código</text>
  <text x="120" y="175" fill="#999" font-family="Segoe UI,Arial,sans-serif" font-size="12" font-weight="600">Razão Social</text>
  <text x="400" y="175" fill="#999" font-family="Segoe UI,Arial,sans-serif" font-size="12" font-weight="600">CNPJ</text>
  <text x="560" y="175" fill="#999" font-family="Segoe UI,Arial,sans-serif" font-size="12" font-weight="600">Estado</text>
  <text x="660" y="175" fill="#999" font-family="Segoe UI,Arial,sans-serif" font-size="12" font-weight="600">Status</text>

  <!-- Row 1 -->
  <rect x="16" y="188" width="768" height="38" fill="#1e1e1e"/>
  <line x1="16" y1="226" x2="784" y2="226" stroke="#2a2a2a" stroke-width="1"/>
  <text x="30"  y="212" fill="#e0e0e0" font-family="Segoe UI,Arial,sans-serif" font-size="13">FOR001</text>
  <text x="120" y="212" fill="#e0e0e0" font-family="Segoe UI,Arial,sans-serif" font-size="13">Distribuidora Alpha Ltda</text>
  <text x="400" y="212" fill="#e0e0e0" font-family="Segoe UI,Arial,sans-serif" font-size="13">12.345.678/0001-90</text>
  <text x="560" y="212" fill="#e0e0e0" font-family="Segoe UI,Arial,sans-serif" font-size="13">SP</text>
  <circle cx="668" cy="207" r="5" fill="#4caf50"/>
  <text x="681" y="212" fill="#4caf50" font-family="Segoe UI,Arial,sans-serif" font-size="12">Ativo</text>

  <!-- Row 2 -->
  <rect x="16" y="226" width="768" height="38" fill="#222"/>
  <line x1="16" y1="264" x2="784" y2="264" stroke="#2a2a2a" stroke-width="1"/>
  <text x="30"  y="250" fill="#e0e0e0" font-family="Segoe UI,Arial,sans-serif" font-size="13">FOR002</text>
  <text x="120" y="250" fill="#e0e0e0" font-family="Segoe UI,Arial,sans-serif" font-size="13">Comércio Beta S/A</text>
  <text x="400" y="250" fill="#e0e0e0" font-family="Segoe UI,Arial,sans-serif" font-size="13">98.765.432/0001-10</text>
  <text x="560" y="250" fill="#e0e0e0" font-family="Segoe UI,Arial,sans-serif" font-size="13">SP</text>
  <circle cx="668" cy="245" r="5" fill="#4caf50"/>
  <text x="681" y="250" fill="#4caf50" font-family="Segoe UI,Arial,sans-serif" font-size="12">Ativo</text>

  <!-- Row 3 -->
  <rect x="16" y="264" width="768" height="38" fill="#1e1e1e"/>
  <line x1="16" y1="302" x2="784" y2="302" stroke="#2a2a2a" stroke-width="1"/>
  <text x="30"  y="288" fill="#e0e0e0" font-family="Segoe UI,Arial,sans-serif" font-size="13">FOR003</text>
  <text x="120" y="288" fill="#e0e0e0" font-family="Segoe UI,Arial,sans-serif" font-size="13">Indústria Gama ME</text>
  <text x="400" y="288" fill="#e0e0e0" font-family="Segoe UI,Arial,sans-serif" font-size="13">11.222.333/0001-44</text>
  <text x="560" y="288" fill="#e0e0e0" font-family="Segoe UI,Arial,sans-serif" font-size="13">SP</text>
  <circle cx="668" cy="283" r="5" fill="#ff9800"/>
  <text x="681" y="288" fill="#ff9800" font-family="Segoe UI,Arial,sans-serif" font-size="12">Pendente</text>

  <!-- Row 4 -->
  <rect x="16" y="302" width="768" height="38" fill="#222"/>
  <line x1="16" y1="340" x2="784" y2="340" stroke="#2a2a2a" stroke-width="1"/>
  <text x="30"  y="326" fill="#e0e0e0" font-family="Segoe UI,Arial,sans-serif" font-size="13">FOR004</text>
  <text x="120" y="326" fill="#e0e0e0" font-family="Segoe UI,Arial,sans-serif" font-size="13">Logística Delta Ltda</text>
  <text x="400" y="326" fill="#e0e0e0" font-family="Segoe UI,Arial,sans-serif" font-size="13">55.666.777/0001-88</text>
  <text x="560" y="326" fill="#e0e0e0" font-family="Segoe UI,Arial,sans-serif" font-size="13">SP</text>
  <circle cx="668" cy="321" r="5" fill="#4caf50"/>
  <text x="681" y="326" fill="#4caf50" font-family="Segoe UI,Arial,sans-serif" font-size="12">Ativo</text>

  <!-- Pagination -->
  <rect x="0" y="420" width="800" height="60" fill="#1a1a1a"/>
  <line x1="0" y1="420" x2="800" y2="420" stroke="#353535" stroke-width="1"/>
  <text x="30" y="457" fill="#666" font-family="Segoe UI,Arial,sans-serif" font-size="13">1 - 4 de 12 itens</text>
  <rect x="624" y="436" width="32" height="26" rx="4" fill="#252525" stroke="#353535" stroke-width="1"/>
  <text x="640" y="454" fill="#888" font-family="Segoe UI,Arial,sans-serif" font-size="14" text-anchor="middle">‹</text>
  <rect x="662" y="436" width="32" height="26" rx="4" fill="#2c6fad"/>
  <text x="678" y="454" fill="white" font-family="Segoe UI,Arial,sans-serif" font-size="13" text-anchor="middle">1</text>
  <rect x="700" y="436" width="32" height="26" rx="4" fill="#252525" stroke="#353535" stroke-width="1"/>
  <text x="716" y="454" fill="#888" font-family="Segoe UI,Arial,sans-serif" font-size="13" text-anchor="middle">2</text>
  <rect x="738" y="436" width="32" height="26" rx="4" fill="#252525" stroke="#353535" stroke-width="1"/>
  <text x="754" y="454" fill="#888" font-family="Segoe UI,Arial,sans-serif" font-size="14" text-anchor="middle">›</text>
</svg>
