<svg xmlns="http://www.w3.org/2000/svg" width="800" height="480" viewBox="0 0 800 480">
  <rect width="800" height="480" fill="#1a1a1a"/>

  <!-- Toolbar -->
  <rect width="800" height="52" fill="#2c6fad"/>
  <text x="20" y="33" fill="white" font-family="Segoe UI,Arial,sans-serif" font-size="16" font-weight="600">Conciliação de Cartão</text>

  <!-- Page body -->
  <rect x="0" y="52" width="800" height="428" fill="#1e1e1e"/>

  <!-- === LEFT PANEL === -->
  <text x="16" y="78" fill="#888" font-family="Segoe UI,Arial,sans-serif" font-size="11" font-weight="600" letter-spacing="1">LANÇAMENTOS ERP</text>
  <rect x="16" y="84" width="370" height="28" rx="4" fill="#252525" stroke="#353535" stroke-width="1"/>
  <text x="28" y="103" fill="#555" font-family="Segoe UI,Arial,sans-serif" font-size="12">Filtrar lançamentos...</text>

  <!-- Left table header -->
  <rect x="16" y="118" width="370" height="28" rx="2" fill="#252525"/>
  <text x="28"  y="137" fill="#999" font-family="Segoe UI,Arial,sans-serif" font-size="11" font-weight="600">Doc.</text>
  <text x="100" y="137" fill="#999" font-family="Segoe UI,Arial,sans-serif" font-size="11" font-weight="600">Data</text>
  <text x="200" y="137" fill="#999" font-family="Segoe UI,Arial,sans-serif" font-size="11" font-weight="600">Valor</text>
  <text x="300" y="137" fill="#999" font-family="Segoe UI,Arial,sans-serif" font-size="11" font-weight="600">Parcela</text>

  <!-- Left rows -->
  <rect x="16" y="146" width="370" height="32" fill="#1e1e1e"/>
  <line x1="16" y1="178" x2="386" y2="178" stroke="#2a2a2a" stroke-width="1"/>
  <text x="28"  y="167" fill="#e0e0e0" font-family="Segoe UI,Arial,sans-serif" font-size="12">NF-0081</text>
  <text x="100" y="167" fill="#e0e0e0" font-family="Segoe UI,Arial,sans-serif" font-size="12">12/01/26</text>
  <text x="200" y="167" fill="#e0e0e0" font-family="Segoe UI,Arial,sans-serif" font-size="12">R$ 450,00</text>
  <text x="300" y="167" fill="#e0e0e0" font-family="Segoe UI,Arial,sans-serif" font-size="12">1/3</text>

  <!-- SELECTED ROW LEFT -->
  <rect x="16" y="178" width="370" height="32" fill="#1b2d3f"/>
  <line x1="16" y1="210" x2="386" y2="210" stroke="#2c6fad" stroke-width="1" opacity="0.5"/>
  <text x="28"  y="199" fill="#7ab3d4" font-family="Segoe UI,Arial,sans-serif" font-size="12" font-weight="600">NF-0082</text>
  <text x="100" y="199" fill="#c0d8e8" font-family="Segoe UI,Arial,sans-serif" font-size="12">15/01/26</text>
  <text x="200" y="199" fill="#c0d8e8" font-family="Segoe UI,Arial,sans-serif" font-size="12">R$ 890,00</text>
  <text x="300" y="199" fill="#c0d8e8" font-family="Segoe UI,Arial,sans-serif" font-size="12">1/1</text>

  <rect x="16" y="210" width="370" height="32" fill="#222"/>
  <line x1="16" y1="242" x2="386" y2="242" stroke="#2a2a2a" stroke-width="1"/>
  <text x="28"  y="231" fill="#e0e0e0" font-family="Segoe UI,Arial,sans-serif" font-size="12">NF-0083</text>
  <text x="100" y="231" fill="#e0e0e0" font-family="Segoe UI,Arial,sans-serif" font-size="12">18/01/26</text>
  <text x="200" y="231" fill="#e0e0e0" font-family="Segoe UI,Arial,sans-serif" font-size="12">R$ 230,00</text>
  <text x="300" y="231" fill="#e0e0e0" font-family="Segoe UI,Arial,sans-serif" font-size="12">2/2</text>

  <rect x="16" y="242" width="370" height="32" fill="#1e1e1e"/>
  <line x1="16" y1="274" x2="386" y2="274" stroke="#2a2a2a" stroke-width="1"/>
  <text x="28"  y="263" fill="#e0e0e0" font-family="Segoe UI,Arial,sans-serif" font-size="12">NF-0084</text>
  <text x="100" y="263" fill="#e0e0e0" font-family="Segoe UI,Arial,sans-serif" font-size="12">20/01/26</text>
  <text x="200" y="263" fill="#e0e0e0" font-family="Segoe UI,Arial,sans-serif" font-size="12">R$ 1.200,00</text>
  <text x="300" y="263" fill="#e0e0e0" font-family="Segoe UI,Arial,sans-serif" font-size="12">1/2</text>

  <!-- === MIDDLE COLUMN === -->
  <line x1="399" y1="60" x2="399" y2="420" stroke="#353535" stroke-width="1"/>

  <!-- Match button -->
  <rect x="365" y="220" width="70" height="36" rx="18" fill="#2c6fad"/>
  <text x="400" y="243" fill="white" font-family="Segoe UI,Arial,sans-serif" font-size="18" text-anchor="middle">⇄</text>

  <!-- === RIGHT PANEL === -->
  <text x="416" y="78" fill="#888" font-family="Segoe UI,Arial,sans-serif" font-size="11" font-weight="600" letter-spacing="1">EXTRATO CARTÃO</text>
  <rect x="416" y="84" width="368" height="28" rx="4" fill="#252525" stroke="#353535" stroke-width="1"/>
  <text x="428" y="103" fill="#555" font-family="Segoe UI,Arial,sans-serif" font-size="12">Filtrar extrato...</text>

  <!-- Right table header -->
  <rect x="416" y="118" width="368" height="28" rx="2" fill="#252525"/>
  <text x="428" y="137" fill="#999" font-family="Segoe UI,Arial,sans-serif" font-size="11" font-weight="600">NSU</text>
  <text x="510" y="137" fill="#999" font-family="Segoe UI,Arial,sans-serif" font-size="11" font-weight="600">Data</text>
  <text x="600" y="137" fill="#999" font-family="Segoe UI,Arial,sans-serif" font-size="11" font-weight="600">Valor</text>
  <text x="696" y="137" fill="#999" font-family="Segoe UI,Arial,sans-serif" font-size="11" font-weight="600">Tipo</text>

  <rect x="416" y="146" width="368" height="32" fill="#1e1e1e"/>
  <line x1="416" y1="178" x2="784" y2="178" stroke="#2a2a2a" stroke-width="1"/>
  <text x="428" y="167" fill="#e0e0e0" font-family="Segoe UI,Arial,sans-serif" font-size="12">7821001</text>
  <text x="510" y="167" fill="#e0e0e0" font-family="Segoe UI,Arial,sans-serif" font-size="12">12/01/26</text>
  <text x="600" y="167" fill="#e0e0e0" font-family="Segoe UI,Arial,sans-serif" font-size="12">R$ 450,00</text>
  <text x="696" y="167" fill="#e0e0e0" font-family="Segoe UI,Arial,sans-serif" font-size="12">Débito</text>

  <!-- SELECTED ROW RIGHT -->
  <rect x="416" y="178" width="368" height="32" fill="#1b2d3f"/>
  <line x1="416" y1="210" x2="784" y2="210" stroke="#2c6fad" stroke-width="1" opacity="0.5"/>
  <text x="428" y="199" fill="#7ab3d4" font-family="Segoe UI,Arial,sans-serif" font-size="12" font-weight="600">7821002</text>
  <text x="510" y="199" fill="#c0d8e8" font-family="Segoe UI,Arial,sans-serif" font-size="12">15/01/26</text>
  <text x="600" y="199" fill="#c0d8e8" font-family="Segoe UI,Arial,sans-serif" font-size="12">R$ 890,00</text>
  <text x="696" y="199" fill="#c0d8e8" font-family="Segoe UI,Arial,sans-serif" font-size="12">Crédito</text>

  <rect x="416" y="210" width="368" height="32" fill="#222"/>
  <line x1="416" y1="242" x2="784" y2="242" stroke="#2a2a2a" stroke-width="1"/>
  <text x="428" y="231" fill="#e0e0e0" font-family="Segoe UI,Arial,sans-serif" font-size="12">7821003</text>
  <text x="510" y="231" fill="#e0e0e0" font-family="Segoe UI,Arial,sans-serif" font-size="12">18/01/26</text>
  <text x="600" y="231" fill="#e0e0e0" font-family="Segoe UI,Arial,sans-serif" font-size="12">R$ 230,00</text>
  <text x="696" y="231" fill="#e0e0e0" font-family="Segoe UI,Arial,sans-serif" font-size="12">Débito</text>

  <rect x="416" y="242" width="368" height="32" fill="#1e1e1e"/>
  <line x1="416" y1="274" x2="784" y2="274" stroke="#2a2a2a" stroke-width="1"/>
  <text x="428" y="263" fill="#e0e0e0" font-family="Segoe UI,Arial,sans-serif" font-size="12">7821004</text>
  <text x="510" y="263" fill="#e0e0e0" font-family="Segoe UI,Arial,sans-serif" font-size="12">20/01/26</text>
  <text x="600" y="263" fill="#e0e0e0" font-family="Segoe UI,Arial,sans-serif" font-size="12">R$ 1.200,00</text>
  <text x="696" y="263" fill="#e0e0e0" font-family="Segoe UI,Arial,sans-serif" font-size="12">Crédito</text>

  <!-- Footer -->
  <rect x="0" y="420" width="800" height="60" fill="#1a1a1a"/>
  <line x1="0" y1="420" x2="800" y2="420" stroke="#353535" stroke-width="1"/>
  <rect x="310" y="433" width="180" height="28" rx="4" fill="#2c6fad"/>
  <text x="400" y="452" fill="white" font-family="Segoe UI,Arial,sans-serif" font-size="13" text-anchor="middle">Confirmar Conciliação</text>
  <text x="30" y="452" fill="#555" font-family="Segoe UI,Arial,sans-serif" font-size="12">ERP: NF-0082 · R$ 890,00   ↔   Cartão: NSU 7821002 · R$ 890,00</text>
</svg>
