<svg xmlns="http://www.w3.org/2000/svg" width="800" height="480" viewBox="0 0 800 480">
  <!-- Background -->
  <rect width="800" height="480" fill="#1a1a1a"/>

  <!-- Toolbar -->
  <rect width="800" height="52" fill="#2c6fad"/>
  <text x="20" y="33" fill="white" font-family="Segoe UI,Arial,sans-serif" font-size="16" font-weight="600">Pedidos</text>

  <!-- Page body -->
  <rect x="0" y="52" width="800" height="368" fill="#1e1e1e"/>

  <!-- Quick search -->
  <rect x="16" y="72" width="300" height="34" rx="4" fill="#252525" stroke="#353535" stroke-width="1"/>
  <text x="32" y="94" fill="#555" font-family="Segoe UI,Arial,sans-serif" font-size="13">Pesquisa rápida...</text>

  <!-- Master table header -->
  <rect x="16" y="122" width="768" height="36" rx="3" fill="#252525"/>
  <text x="52"  y="145" fill="#999" font-family="Segoe UI,Arial,sans-serif" font-size="12" font-weight="600">Pedido</text>
  <text x="180" y="145" fill="#999" font-family="Segoe UI,Arial,sans-serif" font-size="12" font-weight="600">Cliente</text>
  <text x="430" y="145" fill="#999" font-family="Segoe UI,Arial,sans-serif" font-size="12" font-weight="600">Data</text>
  <text x="560" y="145" fill="#999" font-family="Segoe UI,Arial,sans-serif" font-size="12" font-weight="600">Total</text>
  <text x="670" y="145" fill="#999" font-family="Segoe UI,Arial,sans-serif" font-size="12" font-weight="600">Status</text>

  <!-- Master Row 1 — EXPANDED -->
  <rect x="16" y="158" width="768" height="40" fill="#1e1e1e"/>
  <line x1="16" y1="198" x2="784" y2="198" stroke="#2a2a2a" stroke-width="1"/>
  <!-- expand arrow pointing down -->
  <text x="26" y="183" fill="#2c6fad" font-family="Segoe UI,Arial,sans-serif" font-size="12">▼</text>
  <text x="52"  y="183" fill="#e0e0e0" font-family="Segoe UI,Arial,sans-serif" font-size="13">PED-001</text>
  <text x="180" y="183" fill="#e0e0e0" font-family="Segoe UI,Arial,sans-serif" font-size="13">Empresa Alpha Ltda</text>
  <text x="430" y="183" fill="#e0e0e0" font-family="Segoe UI,Arial,sans-serif" font-size="13">15/01/2026</text>
  <text x="560" y="183" fill="#e0e0e0" font-family="Segoe UI,Arial,sans-serif" font-size="13">R$ 4.250,00</text>
  <circle cx="678" cy="178" r="5" fill="#4caf50"/>
  <text x="691" y="183" fill="#4caf50" font-family="Segoe UI,Arial,sans-serif" font-size="12">Ativo</text>

  <!-- Detail sub-table (expanded inline) -->
  <rect x="32" y="198" width="752" height="26" fill="#1a2a3a"/>
  <text x="60"  y="215" fill="#7ab3d4" font-family="Segoe UI,Arial,sans-serif" font-size="11" font-weight="600">Produto</text>
  <text x="300" y="215" fill="#7ab3d4" font-family="Segoe UI,Arial,sans-serif" font-size="11" font-weight="600">Qtd</text>
  <text x="400" y="215" fill="#7ab3d4" font-family="Segoe UI,Arial,sans-serif" font-size="11" font-weight="600">Unitário</text>
  <text x="540" y="215" fill="#7ab3d4" font-family="Segoe UI,Arial,sans-serif" font-size="11" font-weight="600">Subtotal</text>

  <rect x="32" y="224" width="752" height="28" fill="#152030"/>
  <line x1="32" y1="252" x2="784" y2="252" stroke="#1e3040" stroke-width="1"/>
  <text x="60"  y="243" fill="#c0d8e8" font-family="Segoe UI,Arial,sans-serif" font-size="12">Notebook Pro 15"</text>
  <text x="300" y="243" fill="#c0d8e8" font-family="Segoe UI,Arial,sans-serif" font-size="12">2</text>
  <text x="400" y="243" fill="#c0d8e8" font-family="Segoe UI,Arial,sans-serif" font-size="12">R$ 1.800,00</text>
  <text x="540" y="243" fill="#c0d8e8" font-family="Segoe UI,Arial,sans-serif" font-size="12">R$ 3.600,00</text>

  <rect x="32" y="252" width="752" height="28" fill="#152030"/>
  <line x1="32" y1="280" x2="784" y2="280" stroke="#1e3040" stroke-width="1"/>
  <text x="60"  y="271" fill="#c0d8e8" font-family="Segoe UI,Arial,sans-serif" font-size="12">Mouse Sem Fio</text>
  <text x="300" y="271" fill="#c0d8e8" font-family="Segoe UI,Arial,sans-serif" font-size="12">5</text>
  <text x="400" y="271" fill="#c0d8e8" font-family="Segoe UI,Arial,sans-serif" font-size="12">R$ 130,00</text>
  <text x="540" y="271" fill="#c0d8e8" font-family="Segoe UI,Arial,sans-serif" font-size="12">R$ 650,00</text>

  <!-- Master Row 2 — COLLAPSED -->
  <rect x="16" y="280" width="768" height="40" fill="#222"/>
  <line x1="16" y1="320" x2="784" y2="320" stroke="#2a2a2a" stroke-width="1"/>
  <text x="26" y="305" fill="#555" font-family="Segoe UI,Arial,sans-serif" font-size="12">▶</text>
  <text x="52"  y="305" fill="#e0e0e0" font-family="Segoe UI,Arial,sans-serif" font-size="13">PED-002</text>
  <text x="180" y="305" fill="#e0e0e0" font-family="Segoe UI,Arial,sans-serif" font-size="13">Distribuidora Beta S/A</text>
  <text x="430" y="305" fill="#e0e0e0" font-family="Segoe UI,Arial,sans-serif" font-size="13">22/01/2026</text>
  <text x="560" y="305" fill="#e0e0e0" font-family="Segoe UI,Arial,sans-serif" font-size="13">R$ 1.080,00</text>
  <circle cx="678" cy="300" r="5" fill="#ff9800"/>
  <text x="691" y="305" fill="#ff9800" font-family="Segoe UI,Arial,sans-serif" font-size="12">Pendente</text>

  <!-- Master Row 3 — COLLAPSED -->
  <rect x="16" y="320" width="768" height="40" fill="#1e1e1e"/>
  <line x1="16" y1="360" x2="784" y2="360" stroke="#2a2a2a" stroke-width="1"/>
  <text x="26" y="345" fill="#555" font-family="Segoe UI,Arial,sans-serif" font-size="12">▶</text>
  <text x="52"  y="345" fill="#e0e0e0" font-family="Segoe UI,Arial,sans-serif" font-size="13">PED-003</text>
  <text x="180" y="345" fill="#e0e0e0" font-family="Segoe UI,Arial,sans-serif" font-size="13">Comércio Gama ME</text>
  <text x="430" y="345" fill="#e0e0e0" font-family="Segoe UI,Arial,sans-serif" font-size="13">30/01/2026</text>
  <text x="560" y="345" fill="#e0e0e0" font-family="Segoe UI,Arial,sans-serif" font-size="13">R$ 720,00</text>
  <circle cx="678" cy="340" r="5" fill="#4caf50"/>
  <text x="691" y="345" fill="#4caf50" font-family="Segoe UI,Arial,sans-serif" font-size="12">Ativo</text>

  <!-- Pagination -->
  <rect x="0" y="420" width="800" height="60" fill="#1a1a1a"/>
  <line x1="0" y1="420" x2="800" y2="420" stroke="#353535" stroke-width="1"/>
  <text x="30" y="457" fill="#666" font-family="Segoe UI,Arial,sans-serif" font-size="13">1 - 3 de 8 itens</text>
  <rect x="624" y="436" width="32" height="26" rx="4" fill="#252525" stroke="#353535" stroke-width="1"/>
  <text x="640" y="454" fill="#888" font-family="Segoe UI,Arial,sans-serif" font-size="14" text-anchor="middle">‹</text>
  <rect x="662" y="436" width="32" height="26" rx="4" fill="#2c6fad"/>
  <text x="678" y="454" fill="white" font-family="Segoe UI,Arial,sans-serif" font-size="13" text-anchor="middle">1</text>
  <rect x="700" y="436" width="32" height="26" rx="4" fill="#252525" stroke="#353535" stroke-width="1"/>
  <text x="716" y="454" fill="#888" font-family="Segoe UI,Arial,sans-serif" font-size="13" text-anchor="middle">2</text>
  <rect x="738" y="436" width="32" height="26" rx="4" fill="#252525" stroke="#353535" stroke-width="1"/>
  <text x="754" y="454" fill="#888" font-family="Segoe UI,Arial,sans-serif" font-size="14" text-anchor="middle">›</text>
</svg>
