<svg xmlns="http://www.w3.org/2000/svg" width="800" height="480" viewBox="0 0 800 480">
  <rect width="800" height="480" fill="#1a1a1a"/>

  <!-- Toolbar -->
  <rect width="800" height="52" fill="#2c6fad"/>
  <text x="20" y="33" fill="white" font-family="Segoe UI,Arial,sans-serif" font-size="16" font-weight="600">Produtos</text>
  <rect x="696" y="13" width="88" height="28" rx="4" fill="white" fill-opacity="0.15" stroke="white" stroke-opacity="0.35" stroke-width="1"/>
  <text x="740" y="32" fill="white" font-family="Segoe UI,Arial,sans-serif" font-size="13" text-anchor="middle">+ Novo</text>

  <!-- Page body -->
  <rect x="0" y="52" width="800" height="428" fill="#1e1e1e"/>

  <!-- Search bar -->
  <rect x="16" y="70" width="400" height="36" rx="4" fill="#252525" stroke="#353535" stroke-width="1"/>
  <text x="32" y="93" fill="#555" font-family="Segoe UI,Arial,sans-serif" font-size="13">Pesquisa rápida...</text>
  <circle cx="396" cy="88" r="6" fill="none" stroke="#555" stroke-width="1.5"/>
  <line x1="400" y1="93" x2="405" y2="98" stroke="#555" stroke-width="1.5" stroke-linecap="round"/>

  <!-- Label: auto-gerado por PoPageDynamicTable -->
  <rect x="430" y="74" width="354" height="28" rx="4" fill="#1b2d3f" stroke="#2c6fad" stroke-width="1" opacity="0.7"/>
  <text x="607" y="93" fill="#7ab3d4" font-family="Segoe UI,Arial,sans-serif" font-size="11" text-anchor="middle">✦ Tabela gerada automaticamente pelo contrato REST</text>

  <!-- Table header (auto-generated columns) -->
  <rect x="16" y="118" width="768" height="36" rx="3" fill="#252525"/>
  <!-- checkbox col -->
  <rect x="26" y="130" width="14" height="14" rx="2" fill="none" stroke="#555" stroke-width="1.5"/>
  <text x="56"  y="141" fill="#999" font-family="Segoe UI,Arial,sans-serif" font-size="12" font-weight="600">Código</text>
  <text x="160" y="141" fill="#999" font-family="Segoe UI,Arial,sans-serif" font-size="12" font-weight="600">Descrição</text>
  <text x="420" y="141" fill="#999" font-family="Segoe UI,Arial,sans-serif" font-size="12" font-weight="600">Grupo</text>
  <text x="570" y="141" fill="#999" font-family="Segoe UI,Arial,sans-serif" font-size="12" font-weight="600">Preço</text>
  <text x="670" y="141" fill="#999" font-family="Segoe UI,Arial,sans-serif" font-size="12" font-weight="600">Ações</text>

  <!-- Row 1 -->
  <rect x="16" y="154" width="768" height="38" fill="#1e1e1e"/>
  <line x1="16" y1="192" x2="784" y2="192" stroke="#2a2a2a" stroke-width="1"/>
  <rect x="26" y="166" width="14" height="14" rx="2" fill="#2c6fad" stroke="none"/>
  <text x="34" y="177" fill="white" font-family="Segoe UI,Arial,sans-serif" font-size="9">✓</text>
  <text x="56"  y="178" fill="#e0e0e0" font-family="Segoe UI,Arial,sans-serif" font-size="13">PRD-001</text>
  <text x="160" y="178" fill="#e0e0e0" font-family="Segoe UI,Arial,sans-serif" font-size="13">Monitor Ultrawide 34"</text>
  <text x="420" y="178" fill="#e0e0e0" font-family="Segoe UI,Arial,sans-serif" font-size="13">Informática</text>
  <text x="570" y="178" fill="#e0e0e0" font-family="Segoe UI,Arial,sans-serif" font-size="13">R$ 1.899,90</text>
  <rect x="662" y="161" width="28" height="22" rx="3" fill="#252525" stroke="#353535" stroke-width="1"/>
  <text x="676" y="177" fill="#888" font-family="Segoe UI,Arial,sans-serif" font-size="14" text-anchor="middle">✎</text>
  <rect x="696" y="161" width="28" height="22" rx="3" fill="#252525" stroke="#353535" stroke-width="1"/>
  <text x="710" y="177" fill="#e57373" font-family="Segoe UI,Arial,sans-serif" font-size="13" text-anchor="middle">✕</text>

  <!-- Row 2 -->
  <rect x="16" y="192" width="768" height="38" fill="#222"/>
  <line x1="16" y1="230" x2="784" y2="230" stroke="#2a2a2a" stroke-width="1"/>
  <rect x="26" y="204" width="14" height="14" rx="2" fill="none" stroke="#555" stroke-width="1.5"/>
  <text x="56"  y="216" fill="#e0e0e0" font-family="Segoe UI,Arial,sans-serif" font-size="13">PRD-002</text>
  <text x="160" y="216" fill="#e0e0e0" font-family="Segoe UI,Arial,sans-serif" font-size="13">Teclado Mecânico</text>
  <text x="420" y="216" fill="#e0e0e0" font-family="Segoe UI,Arial,sans-serif" font-size="13">Periféricos</text>
  <text x="570" y="216" fill="#e0e0e0" font-family="Segoe UI,Arial,sans-serif" font-size="13">R$ 349,90</text>
  <rect x="662" y="199" width="28" height="22" rx="3" fill="#252525" stroke="#353535" stroke-width="1"/>
  <text x="676" y="215" fill="#888" font-family="Segoe UI,Arial,sans-serif" font-size="14" text-anchor="middle">✎</text>
  <rect x="696" y="199" width="28" height="22" rx="3" fill="#252525" stroke="#353535" stroke-width="1"/>
  <text x="710" y="215" fill="#e57373" font-family="Segoe UI,Arial,sans-serif" font-size="13" text-anchor="middle">✕</text>

  <!-- Row 3 -->
  <rect x="16" y="230" width="768" height="38" fill="#1e1e1e"/>
  <line x1="16" y1="268" x2="784" y2="268" stroke="#2a2a2a" stroke-width="1"/>
  <rect x="26" y="242" width="14" height="14" rx="2" fill="none" stroke="#555" stroke-width="1.5"/>
  <text x="56"  y="254" fill="#e0e0e0" font-family="Segoe UI,Arial,sans-serif" font-size="13">PRD-003</text>
  <text x="160" y="254" fill="#e0e0e0" font-family="Segoe UI,Arial,sans-serif" font-size="13">Headset Gamer</text>
  <text x="420" y="254" fill="#e0e0e0" font-family="Segoe UI,Arial,sans-serif" font-size="13">Periféricos</text>
  <text x="570" y="254" fill="#e0e0e0" font-family="Segoe UI,Arial,sans-serif" font-size="13">R$ 289,00</text>
  <rect x="662" y="237" width="28" height="22" rx="3" fill="#252525" stroke="#353535" stroke-width="1"/>
  <text x="676" y="253" fill="#888" font-family="Segoe UI,Arial,sans-serif" font-size="14" text-anchor="middle">✎</text>
  <rect x="696" y="237" width="28" height="22" rx="3" fill="#252525" stroke="#353535" stroke-width="1"/>
  <text x="710" y="253" fill="#e57373" font-family="Segoe UI,Arial,sans-serif" font-size="13" text-anchor="middle">✕</text>

  <!-- Row 4 -->
  <rect x="16" y="268" width="768" height="38" fill="#222"/>
  <line x1="16" y1="306" x2="784" y2="306" stroke="#2a2a2a" stroke-width="1"/>
  <rect x="26" y="280" width="14" height="14" rx="2" fill="none" stroke="#555" stroke-width="1.5"/>
  <text x="56"  y="292" fill="#e0e0e0" font-family="Segoe UI,Arial,sans-serif" font-size="13">PRD-004</text>
  <text x="160" y="292" fill="#e0e0e0" font-family="Segoe UI,Arial,sans-serif" font-size="13">Webcam Full HD</text>
  <text x="420" y="292" fill="#e0e0e0" font-family="Segoe UI,Arial,sans-serif" font-size="13">Periféricos</text>
  <text x="570" y="292" fill="#e0e0e0" font-family="Segoe UI,Arial,sans-serif" font-size="13">R$ 199,90</text>
  <rect x="662" y="275" width="28" height="22" rx="3" fill="#252525" stroke="#353535" stroke-width="1"/>
  <text x="676" y="291" fill="#888" font-family="Segoe UI,Arial,sans-serif" font-size="14" text-anchor="middle">✎</text>
  <rect x="696" y="275" width="28" height="22" rx="3" fill="#252525" stroke="#353535" stroke-width="1"/>
  <text x="710" y="291" fill="#e57373" font-family="Segoe UI,Arial,sans-serif" font-size="13" text-anchor="middle">✕</text>

  <!-- Bulk action bar (row 1 checked) -->
  <rect x="16" y="314" width="768" height="36" rx="4" fill="#1b2d3f" stroke="#2c6fad" stroke-width="1"/>
  <text x="30" y="337" fill="#7ab3d4" font-family="Segoe UI,Arial,sans-serif" font-size="13">1 item selecionado</text>
  <rect x="640" y="320" width="70" height="24" rx="4" fill="transparent" stroke="#2c6fad" stroke-width="1"/>
  <text x="675" y="337" fill="#7ab3d4" font-family="Segoe UI,Arial,sans-serif" font-size="12" text-anchor="middle">Excluir</text>

  <!-- Pagination -->
  <rect x="0" y="420" width="800" height="60" fill="#1a1a1a"/>
  <line x1="0" y1="420" x2="800" y2="420" stroke="#353535" stroke-width="1"/>
  <text x="30" y="457" fill="#666" font-family="Segoe UI,Arial,sans-serif" font-size="13">1 - 4 de 18 itens</text>
  <rect x="624" y="436" width="32" height="26" rx="4" fill="#252525" stroke="#353535" stroke-width="1"/>
  <text x="640" y="454" fill="#888" font-family="Segoe UI,Arial,sans-serif" font-size="14" text-anchor="middle">‹</text>
  <rect x="662" y="436" width="32" height="26" rx="4" fill="#2c6fad"/>
  <text x="678" y="454" fill="white" font-family="Segoe UI,Arial,sans-serif" font-size="13" text-anchor="middle">1</text>
  <rect x="700" y="436" width="32" height="26" rx="4" fill="#252525" stroke="#353535" stroke-width="1"/>
  <text x="716" y="454" fill="#888" font-family="Segoe UI,Arial,sans-serif" font-size="13" text-anchor="middle">2</text>
  <rect x="738" y="436" width="32" height="26" rx="4" fill="#252525" stroke="#353535" stroke-width="1"/>
  <text x="754" y="454" fill="#888" font-family="Segoe UI,Arial,sans-serif" font-size="14" text-anchor="middle">›</text>
</svg>
